<svg width="38" height="38" viewBox="0 0 38 38" fill="none" xmlns="http://www.w3.org/2000/svg">
<path d="M18.75 0C8.4 0 0 8.4 0 18.75C0 29.1 8.4 37.5 18.75 37.5C29.1 37.5 37.5 29.1 37.5 18.75C37.5 8.4 29.1 0 18.75 0ZM9.50625 30.525C10.3125 28.8375 15.225 27.1875 18.75 27.1875C22.275 27.1875 27.2063 28.8375 27.9938 30.525C25.4438 32.55 22.2375 33.75 18.75 33.75C15.2625 33.75 12.0563 32.55 9.50625 30.525ZM30.675 27.8062C27.9938 24.5437 21.4875 23.4375 18.75 23.4375C16.0125 23.4375 9.50625 24.5437 6.825 27.8062C4.9125 25.2937 3.75 22.1625 3.75 18.75C3.75 10.4813 10.4813 3.75 18.75 3.75C27.0187 3.75 33.75 10.4813 33.75 18.75C33.75 22.1625 32.5875 25.2937 30.675 27.8062ZM18.75 7.5C15.1125 7.5 12.1875 10.425 12.1875 14.0625C12.1875 17.7 15.1125 20.625 18.75 20.625C22.3875 20.625 25.3125 17.7 25.3125 14.0625C25.3125 10.425 22.3875 7.5 18.75 7.5ZM18.75 16.875C17.1938 16.875 15.9375 15.6187 15.9375 14.0625C15.9375 12.5063 17.1938 11.25 18.75 11.25C20.3062 11.25 21.5625 12.5063 21.5625 14.0625C21.5625 15.6187 20.3062 16.875 18.75 16.875Z" fill="black"/>
</svg>
