<svg width="45" height="30" viewBox="0 0 45 30" fill="none" xmlns="http://www.w3.org/2000/svg">
<g clip-path="url(#clip0_16_3)">
<path d="M36.2812 11.325C35.0063 4.85625 29.325 0 22.5 0C17.0812 0 12.375 3.075 10.0312 7.575C4.3875 8.175 0 12.9563 0 18.75C0 24.9562 5.04375 30 11.25 30H35.625C40.8 30 45 25.8 45 20.625C45 15.675 41.1562 11.6625 36.2812 11.325ZM35.625 26.25H11.25C7.10625 26.25 3.75 22.8938 3.75 18.75C3.75 14.9062 6.61875 11.7 10.425 11.3062L12.4313 11.1L13.3688 9.31875C15.15 5.8875 18.6375 3.75 22.5 3.75C27.4125 3.75 31.65 7.2375 32.6062 12.0563L33.1688 14.8688L36.0375 15.075C38.9625 15.2625 41.25 17.7188 41.25 20.625C41.25 23.7188 38.7188 26.25 35.625 26.25ZM25.2188 11.25H19.7812V16.875H15L22.5 24.375L30 16.875H25.2188V11.25Z" fill="black"/>
</g>
<defs>
<clipPath id="clip0_16_3">
<rect width="45" height="30" fill="white"/>
</clipPath>
</defs>
</svg>

